<svg width="15" height="15" viewBox="0 0 15 15" fill="none" xmlns="http://www.w3.org/2000/svg">
<path d="M15.2512 13.202L11.1232 9.33195C11.8709 8.40295 12.32 7.25095 12.32 5.99995C12.32 2.93995 9.66505 0.449951 6.39998 0.449951C3.13598 0.449951 0.47998 2.93995 0.47998 5.99995C0.47998 9.06095 3.13598 11.55 6.39998 11.55C7.73438 11.55 8.96318 11.129 9.95411 10.428L14.0821 14.298C14.2432 14.449 14.4554 14.526 14.6666 14.526C14.8778 14.526 15.089 14.45 15.2512 14.298C15.5744 13.995 15.5744 13.505 15.2512 13.202ZM1.65331 5.99995C1.65331 3.54595 3.78345 1.54995 6.39998 1.54995C9.01758 1.54995 11.1466 3.54695 11.1466 5.99995C11.1466 8.45295 9.01758 10.45 6.39998 10.45C3.78238 10.45 1.65331 8.45395 1.65331 5.99995Z" fill="#DADADA"/>
</svg>
